<svg viewBox="0 0 60 55" fill="none" xmlns="http://www.w3.org/2000/svg">
<g clip-path="url(#clip0)">
<path d="M37.6744 26.125L13.9535 22V52.4796C13.9535 53.8716 15.0986 55 16.5111 55H57.4423C58.8549 55 60 53.8716 60 52.4796V41.25L37.6744 26.125Z" fill="#185C37"/>
<path d="M37.6744 0H16.5111C15.0986 0 13.9535 1.1284 13.9535 2.52037V13.75L37.6744 27.5L50.2325 31.625L60 27.5V13.75L37.6744 0Z" fill="#21A366"/>
<path d="M13.9535 13.75H37.6744V27.5H13.9535V13.75Z" fill="#107C41"/>
<path opacity="0.1" d="M30.9307 11H13.9535V45.375H30.9307C32.3413 45.3705 33.4838 44.2447 33.4883 42.8546V13.5204C33.4838 12.1303 32.3413 11.0045 30.9307 11Z" fill="black"/>
<path opacity="0.2" d="M29.5353 12.375H13.9535V46.75H29.5353C30.946 46.7455 32.0884 45.6197 32.093 44.2296V14.8954C32.0884 13.5053 30.946 12.3795 29.5353 12.375Z" fill="black"/>
<path opacity="0.2" d="M29.5353 12.375H13.9535V44H29.5353C30.946 43.9955 32.0884 42.8697 32.093 41.4796V14.8954C32.0884 13.5053 30.946 12.3795 29.5353 12.375Z" fill="black"/>
<path opacity="0.2" d="M28.14 12.375H13.9535V44H28.14C29.5506 43.9955 30.6931 42.8697 30.6976 41.4796V14.8954C30.6931 13.5053 29.5506 12.3795 28.14 12.375Z" fill="black"/>
<path d="M2.55767 12.375H28.14C29.5525 12.375 30.6976 13.5034 30.6976 14.8954V40.1046C30.6976 41.4966 29.5525 42.625 28.14 42.625H2.55767C1.1451 42.625 0 41.4966 0 40.1046V14.8954C0 13.5034 1.1451 12.375 2.55767 12.375Z" fill="url(#paint0_linear)"/>
<path d="M7.92133 35.6923L13.3018 27.4767L8.37203 19.3064H12.3376L15.0278 24.5314C15.2762 25.0278 15.4464 25.3963 15.5385 25.6396H15.5734C15.7502 25.2436 15.9362 24.8591 16.1316 24.486L19.0074 19.3092H22.6478L17.5925 27.4313L22.7762 35.6923H18.9027L15.7953 29.9572C15.6489 29.7131 15.5247 29.4568 15.4241 29.1913H15.3781C15.2871 29.4514 15.1663 29.7005 15.0181 29.9338L11.8186 35.6923H7.92133Z" fill="white"/>
<path d="M57.4422 0H37.6743V13.75H59.9999V2.52037C59.9999 1.1284 58.8548 0 57.4422 0Z" fill="#33C481"/>
<path d="M37.6743 27.5H59.9999V41.25H37.6743V27.5Z" fill="#107C41"/>
</g>
<defs>
<linearGradient id="paint0_linear" x1="5.33281" y1="10.4056" x2="24.9267" y2="44.8437" gradientUnits="userSpaceOnUse">
<stop stop-color="#18884F"/>
<stop offset="0.5" stop-color="#117E43"/>
<stop offset="1" stop-color="#0B6631"/>
</linearGradient>
<clipPath id="clip0">
<rect width="60" height="55" fill="white"/>
</clipPath>
</defs>
</svg>
