<svg width="32" height="32" viewBox="0 0 32 32" fill="none" xmlns="http://www.w3.org/2000/svg">
<path d="M16.0001 0C7.16466 0 0 7.34463 0 16.4051C0 23.6533 4.58452 29.8026 10.9419 31.9718C11.7415 32.1237 12.0351 31.6159 12.0351 31.1826C12.0351 30.7914 12.0202 29.4991 12.0133 28.1283C7.5621 29.1207 6.62283 26.1928 6.62283 26.1928C5.89499 24.2966 4.8463 23.7924 4.8463 23.7924C3.39461 22.7742 4.95573 22.7951 4.95573 22.7951C6.56242 22.9108 7.40842 24.4856 7.40842 24.4856C8.83547 26.9936 11.1514 26.2685 12.0645 25.8494C12.2081 24.7891 12.6227 24.0654 13.0803 23.6557C9.52648 23.2409 5.7906 21.8342 5.7906 15.5483C5.7906 13.7572 6.41563 12.2938 7.43916 11.1449C7.27303 10.7317 6.72537 9.06316 7.59415 6.80348C7.59415 6.80348 8.93774 6.36258 11.9953 8.48507C13.2716 8.12158 14.6404 7.9393 16.0001 7.93305C17.3599 7.9393 18.7297 8.12158 20.0084 8.48507C23.0623 6.36258 24.404 6.80348 24.404 6.80348C25.2749 9.06316 24.727 10.7317 24.5608 11.1449C25.5868 12.2938 26.2075 13.7572 26.2075 15.5483C26.2075 21.8492 22.4645 23.2365 18.9017 23.6427C19.4756 24.1518 19.9869 25.1501 19.9869 26.6807C19.9869 28.8757 19.9684 30.6423 19.9684 31.1826C19.9684 31.6192 20.2564 32.1307 21.0674 31.9696C27.4213 29.798 32 23.6508 32 16.4051C32 7.34463 24.8364 0 16.0001 0" fill="black"/>
<path d="M6.10715 23.4414C6.07198 23.5221 5.94715 23.5464 5.83343 23.4909C5.7176 23.438 5.65254 23.3279 5.69009 23.247C5.72447 23.1639 5.84956 23.1407 5.96513 23.1964C6.08123 23.2494 6.14735 23.3605 6.10715 23.4414" fill="#161514"/>
<path d="M6.75411 24.175C6.67795 24.2468 6.52906 24.2135 6.42803 24.1C6.32357 23.9867 6.304 23.8353 6.38122 23.7624C6.45977 23.6906 6.60416 23.7242 6.70889 23.8374C6.81335 23.952 6.83372 24.1024 6.75411 24.175" fill="#161514"/>
<path d="M7.38374 25.1113C7.28589 25.1804 7.12589 25.1156 7.02698 24.9711C6.92913 24.8267 6.92913 24.6535 7.0291 24.5841C7.12827 24.5147 7.28589 24.5771 7.38612 24.7204C7.48371 24.8673 7.48371 25.0405 7.38374 25.1113" fill="#161514"/>
<path d="M8.24643 26.0146C8.15889 26.1128 7.97244 26.0864 7.83598 25.9525C7.69634 25.8215 7.65747 25.6356 7.74527 25.5374C7.83386 25.439 8.02137 25.4667 8.15889 25.5996C8.29747 25.7303 8.33978 25.9175 8.24643 26.0146" fill="#161514"/>
<path d="M9.43659 26.5393C9.39798 26.6666 9.21841 26.7244 9.03752 26.6703C8.85689 26.6147 8.73868 26.4656 8.77517 26.3371C8.81273 26.209 8.99309 26.1488 9.1753 26.2066C9.35567 26.262 9.47415 26.41 9.43659 26.5393" fill="#161514"/>
<path d="M10.7437 26.6365C10.7481 26.7704 10.5948 26.8815 10.4049 26.8839C10.2139 26.8882 10.0595 26.7799 10.0574 26.648C10.0574 26.5128 10.2073 26.4027 10.3983 26.3995C10.5881 26.3957 10.7437 26.5033 10.7437 26.6365" fill="#161514"/>
<path d="M11.9597 26.426C11.9825 26.5567 11.8505 26.6909 11.6619 26.7267C11.4765 26.7611 11.3049 26.6804 11.2814 26.5508C11.2584 26.4168 11.3927 26.2826 11.5778 26.2479C11.7667 26.2145 11.9357 26.2931 11.9597 26.426" fill="#161514"/>
</svg>
