<svg width="40" height="40" viewBox="0 0 40 40" fill="none" xmlns="http://www.w3.org/2000/svg">
<path d="M20.0002 0C8.95583 0 0 9.18079 0 20.5063C0 29.5666 5.73066 37.2532 13.6773 39.9648C14.6769 40.1546 15.0438 39.5199 15.0438 38.9783C15.0438 38.4893 15.0253 36.8739 15.0167 35.1604C9.45262 36.4009 8.27853 32.7409 8.27853 32.7409C7.36874 30.3707 6.05788 29.7404 6.05788 29.7404C4.24326 28.4677 6.19466 28.4939 6.19466 28.4939C8.20302 28.6385 9.26053 30.607 9.26053 30.607C11.0443 33.742 13.9393 32.8357 15.0806 32.3117C15.2601 30.9864 15.7784 30.0817 16.3504 29.5696C11.9081 29.0511 7.23825 27.2928 7.23825 19.4353C7.23825 17.1965 8.01954 15.3672 9.29894 13.9311C9.09129 13.4146 8.40671 11.3289 9.49269 8.50435C9.49269 8.50435 11.1722 7.95322 14.9942 10.6063C16.5895 10.152 18.3005 9.92412 20.0002 9.91631C21.6999 9.92412 23.4121 10.152 25.0105 10.6063C28.8278 7.95322 30.505 8.50435 30.505 8.50435C31.5936 11.3289 30.9087 13.4146 30.7011 13.9311C31.9834 15.3672 32.7594 17.1965 32.7594 19.4353C32.7594 27.3115 28.0806 29.0457 23.6271 29.5533C24.3444 30.1897 24.9836 31.4376 24.9836 33.3508C24.9836 36.0946 24.9605 38.3029 24.9605 38.9783C24.9605 39.524 25.3205 40.1634 26.3343 39.962C34.2766 37.2475 40 29.5635 40 20.5063C40 9.18079 31.0455 0 20.0002 0Z" fill="white"/>
<path d="M7.634 29.3023C7.59003 29.4032 7.434 29.4334 7.29185 29.3642C7.14706 29.2979 7.06574 29.1604 7.11268 29.0592C7.15565 28.9553 7.31202 28.9264 7.45648 28.996C7.6016 29.0622 7.68425 29.2011 7.634 29.3023Z" fill="#161514"/>
<path d="M8.44258 30.2192C8.34737 30.309 8.16126 30.2673 8.03498 30.1254C7.9044 29.9839 7.87994 29.7946 7.97646 29.7035C8.07465 29.6137 8.25514 29.6557 8.38605 29.7973C8.51663 29.9405 8.54208 30.1285 8.44258 30.2192Z" fill="#161514"/>
<path d="M9.22974 31.3889C9.10743 31.4753 8.90743 31.3942 8.78379 31.2137C8.66148 31.0331 8.66148 30.8166 8.78644 30.7299C8.9104 30.6431 9.10743 30.7211 9.23272 30.9003C9.3547 31.0839 9.3547 31.3004 9.22974 31.3889Z" fill="#161514"/>
<path d="M10.308 32.5178C10.1986 32.6405 9.96549 32.6076 9.79491 32.4401C9.62037 32.2764 9.57177 32.044 9.68153 31.9213C9.79227 31.7983 10.0266 31.8329 10.1986 31.999C10.3718 32.1624 10.4247 32.3964 10.308 32.5178Z" fill="#161514"/>
<path d="M11.7957 33.1739C11.7475 33.333 11.523 33.4053 11.2969 33.3377C11.0711 33.2681 10.9233 33.0818 10.969 32.9211C11.0159 32.7611 11.2414 32.6857 11.4691 32.758C11.6946 32.8273 11.8427 33.0122 11.7957 33.1739Z" fill="#161514"/>
<path d="M13.4294 33.2963C13.435 33.4638 13.2433 33.6026 13.0059 33.6057C12.7672 33.611 12.5742 33.4755 12.5715 33.3108C12.5715 33.1417 12.759 33.0042 12.9976 33.0001C13.235 32.9954 13.4294 33.1299 13.4294 33.2963Z" fill="#161514"/>
<path d="M14.9498 33.0329C14.9782 33.1963 14.8132 33.3641 14.5775 33.4088C14.3458 33.4519 14.1313 33.351 14.1018 33.1889C14.0731 33.0215 14.241 32.8537 14.4724 32.8104C14.7085 32.7687 14.9197 32.8668 14.9498 33.0329Z" fill="#161514"/>
</svg>
