<svg width="146" height="46" viewBox="0 0 146 46" fill="none" xmlns="http://www.w3.org/2000/svg">
<path d="M12.1 7L5 14.5V7H12.1Z" fill="#3838E5"/>
<path d="M12.4 7L5 14.8V14.5L12.1 7H12.4Z" fill="#3838E5"/>
<path d="M12.6 7L5 15.1V14.8L12.4 7H12.6Z" fill="#3737E3"/>
<path d="M12.9 7L5 15.4V15.1L12.6 7H12.9Z" fill="#3737E1"/>
<path d="M13.2 7L5 15.7V15.4L12.9 7H13.2Z" fill="#3636DF"/>
<path d="M13.5 7L5 16V15.7L13.2 7H13.5Z" fill="#3636DD"/>
<path d="M13.8 7L5 16.3V16L13.5 7H13.8Z" fill="#3535DB"/>
<path d="M14 7L5 16.6V16.3L13.8 7H14Z" fill="#3535D9"/>
<path d="M14.3 7L5 16.9V16.6L14 7H14.3Z" fill="#3535D7"/>
<path d="M14.6 7L5 17.1V16.9L14.3 7H14.6Z" fill="#3434D5"/>
<path d="M14.9 7L5 17.4V17.1L14.6 7H14.9Z" fill="#3434D3"/>
<path d="M15.1 7L5 17.7V17.4L14.9 7H15.1Z" fill="#3333D1"/>
<path d="M15.4 7L5 18V17.7L15.1 7H15.4Z" fill="#3333CF"/>
<path d="M15.7 7L5 18.3V18L15.4 7H15.7Z" fill="#3232CD"/>
<path d="M16 7L5 18.6V18.3L15.7 7H16Z" fill="#3232CB"/>
<path d="M16.3 7L5 18.9V18.6L16 7H16.3Z" fill="#3131C9"/>
<path d="M16.5 7L5 19.2V18.9L16.3 7H16.5Z" fill="#3131C7"/>
<path d="M16.8 7L5 19.5V19.2L16.5 7H16.8Z" fill="#3030C5"/>
<path d="M17.1 7L5 19.8V19.5L16.8 7H17.1Z" fill="#3030C3"/>
<path d="M17.4 7L5 20.1V19.8L17.1 7H17.4Z" fill="#2F2FC1"/>
<path d="M17.6 7L5 20.4V20.1L17.4 7H17.6Z" fill="#2F2FBF"/>
<path d="M17.9 7L5 20.7V20.4L17.6 7H17.9Z" fill="#2E2EBD"/>
<path d="M18.2 7L5 21V20.7L17.9 7H18.2Z" fill="#2E2EBC"/>
<path d="M18.5 7L5 21.3V21L18.2 7H18.5Z" fill="#2D2DBA"/>
<path d="M18.7 7L5 21.5V21.3L18.5 7H18.7Z" fill="#2D2DB8"/>
<path d="M19 7L5 21.8V21.5L18.7 7H19Z" fill="#2D2DB6"/>
<path d="M19.3 7L5 22.1V21.8L19 7H19.3Z" fill="#2C2CB4"/>
<path d="M19.6 7L5 22.4V22.1L19.3 7H19.6Z" fill="#2C2CB2"/>
<path d="M19.9 7L5 22.7V22.4L19.6 7H19.9Z" fill="#2B2BB1"/>
<path d="M20.1 7L5 23V22.7L19.9 7H20.1Z" fill="#2B2BAF"/>
<path d="M20.4 7L5 23.3V23L20.1 7H20.4Z" fill="#2A2AAD"/>
<path d="M20.7 7L5 23.6V23.3L20.4 7H20.7Z" fill="#2A2AAB"/>
<path d="M21 7L5 23.9V23.6L20.7 7H21Z" fill="#2929A9"/>
<path d="M21.2 7L5 24.2V23.9L21 7H21.2Z" fill="#2929A8"/>
<path d="M21.5 7L5 24.5V24.2L21.2 7H21.5Z" fill="#2929A6"/>
<path d="M21.8 7L5 24.8V24.5L21.5 7H21.8Z" fill="#2828A4"/>
<path d="M22.1 7L5 25.1V24.8L21.8 7H22.1Z" fill="#2828A2"/>
<path d="M22.4 7L5 25.4V25.1L22.1 7H22.4Z" fill="#2727A1"/>
<path d="M22.6 7L5 25.7V25.4L22.4 7H22.6Z" fill="#27279F"/>
<path d="M22.9 7L5 26V25.7L22.6 7H22.9Z" fill="#26269D"/>
<path d="M23.2 7L5 26.2V26L22.9 7H23.2Z" fill="#26269C"/>
<path d="M23.5 7L5 26.5V26.2L23.2 7H23.5Z" fill="#26269A"/>
<path d="M23.7 7L5 26.8V26.5L23.5 7H23.7Z" fill="#252598"/>
<path d="M24 7L5 27.1V26.8L23.7 7H24Z" fill="#252596"/>
<path d="M24.3 7L5 27.4V27.1L24 7H24.3Z" fill="#242495"/>
<path d="M24.6 7L5 27.7V27.4L24.3 7H24.6Z" fill="#242493"/>
<path d="M24.8 7L5 28V27.7L24.6 7H24.8Z" fill="#242491"/>
<path d="M25.1 7L5 28.3V28L24.8 7H25.1Z" fill="#232390"/>
<path d="M25.4 7L5 28.6V28.3L25.1 7H25.4Z" fill="#23238E"/>
<path d="M25.7 7L5 28.9V28.6L25.4 7H25.7Z" fill="#22228D"/>
<path d="M26 7L5 29.2V28.9L25.7 7H26Z" fill="#22228B"/>
<path d="M26.2 7L5 29.5V29.2L26 7H26.2Z" fill="#222289"/>
<path d="M26.5 7L5 29.8V29.5L26.2 7H26.5Z" fill="#212188"/>
<path d="M26.8 7L5 30.1V29.8L26.5 7H26.8Z" fill="#212186"/>
<path d="M27.1 7L5 30.4V30.1L26.8 7H27.1Z" fill="#202085"/>
<path d="M27.3 7L5 30.6V30.4L27.1 7H27.3Z" fill="#202083"/>
<path d="M27.6 7L5 30.9V30.6L27.3 7H27.6Z" fill="#202082"/>
<path d="M27.9 7L5 31.2V30.9L27.6 7H27.9Z" fill="#1F1F80"/>
<path d="M28.2 7L5 31.5V31.2L27.9 7H28.2Z" fill="#1F1F7E"/>
<path d="M28.4 7L5 31.8V31.5L28.2 7H28.4Z" fill="#1F1F7D"/>
<path d="M28.7 7L5 32.1V31.8L28.4 7H28.7Z" fill="#1E1E7B"/>
<path d="M29 7L5 32.4V32.1L28.7 7H29Z" fill="#1E1E7A"/>
<path d="M29.3 7L5 32.7V32.4L29 7H29.3Z" fill="#1D1D78"/>
<path d="M29.6 7L5 33V32.7L29.3 7H29.6Z" fill="#1D1D77"/>
<path d="M29.8 7L5 33.3V33L29.6 7H29.8Z" fill="#1D1D76"/>
<path d="M30.1 7L5 33.6V33.3L29.8 7H30.1Z" fill="#1C1C74"/>
<path d="M30.4 7L5 33.9V33.6L30.1 7H30.4Z" fill="#1C1C73"/>
<path d="M30.7 7L5 34.2V33.9L30.4 7H30.7Z" fill="#1C1C71"/>
<path d="M30.9 7L5 34.5V34.2L30.7 7H30.9Z" fill="#1B1B70"/>
<path d="M31.2 7L5 34.8V34.5L30.9 7H31.2Z" fill="#1B1B6E"/>
<path d="M31.5 7L5 35V34.8L31.2 7H31.5Z" fill="#1B1B6D"/>
<path d="M31.8 7L5 35.3V35L31.5 7H31.8Z" fill="#1A1A6B"/>
<path d="M32.1 7L5 35.6V35.3L31.8 7H32.1Z" fill="#1A1A6A"/>
<path d="M32.3 7L5 35.9V35.6L32.1 7H32.3Z" fill="#1A1A69"/>
<path d="M32.6 7L5 36.2V35.9L32.3 7H32.6Z" fill="#191967"/>
<path d="M32.9 7L5 36.5V36.2L32.6 7H32.9Z" fill="#191966"/>
<path d="M33.2 7L5 36.8V36.5L32.9 7H33.2Z" fill="#191965"/>
<path d="M33.4 7L5 37.1V36.8L33.2 7H33.4Z" fill="#181863"/>
<path d="M33.7 7L5 37.4V37.1L33.4 7H33.7Z" fill="#181862"/>
<path d="M34 7L5 37.7V37.4L33.7 7H34Z" fill="#181861"/>
<path d="M34.3 7L5 38V37.7L34 7H34.3Z" fill="#17175F"/>
<path d="M34.5 7L5 38.3V38L34.3 7H34.5Z" fill="#17175E"/>
<path d="M34.8 7L5 38.6V38.3L34.5 7H34.8Z" fill="#17175D"/>
<path d="M35.1 7L5 38.9V38.6L34.8 7H35.1Z" fill="#16165B"/>
<path d="M35.4 7L5.1 39H5V38.9L35.1 7H35.4Z" fill="#16165A"/>
<path d="M35.7001 7L5.4001 39H5.1001L35.4001 7H35.7001Z" fill="#161659"/>
<path d="M35.8999 7L5.6999 39H5.3999L35.6999 7H35.8999Z" fill="#151557"/>
<path d="M36.2002 7L6.0002 39H5.7002L35.9002 7H36.2002Z" fill="#151556"/>
<path d="M36.5 7L6.3 39H6L36.2 7H36.5Z" fill="#151555"/>
<path d="M36.7998 7L6.4998 39H6.2998L36.4998 7H36.7998Z" fill="#141454"/>
<path d="M37 7L6.8 39H6.5L36.8 7H37Z" fill="#141452"/>
<path d="M36.9998 7.3L7.0998 39H6.7998L36.9998 7V7.3Z" fill="#141451"/>
<path d="M37.0001 7.5998L7.4001 38.9998H7.1001L37.0001 7.2998V7.5998Z" fill="#141450"/>
<path d="M36.9999 7.89961L7.5999 38.9996H7.3999L36.9999 7.59961V7.89961Z" fill="#13134F"/>
<path d="M37.0001 8.20039L7.9001 39.0004H7.6001L37.0001 7.90039V8.20039Z" fill="#13134E"/>
<path d="M36.9999 8.5002L8.1999 39.0002H7.8999L36.9999 8.2002V8.5002Z" fill="#13134C"/>
<path d="M37.0002 8.8L8.5002 39H8.2002L37.0002 8.5V8.8Z" fill="#12124B"/>
<path d="M37 9.0998L8.7 38.9998H8.5L37 8.7998V9.0998Z" fill="#12124A"/>
<path d="M37.0002 9.39961L9.0002 38.9996H8.7002L37.0002 9.09961V9.39961Z" fill="#121249"/>
<path d="M37 9.70039L9.3 39.0004H9L37 9.40039V9.70039Z" fill="#121248"/>
<path d="M36.9998 10.0002L9.5998 39.0002H9.2998L36.9998 9.7002V10.0002Z" fill="#111147"/>
<path d="M37.0001 10.3L9.9001 39H9.6001L37.0001 10V10.3Z" fill="#111146"/>
<path d="M36.9999 10.5998L10.0999 38.9998H9.8999L36.9999 10.2998V10.5998Z" fill="#111144"/>
<path d="M37.0001 10.8996L10.4001 38.9996H10.1001L37.0001 10.5996V10.8996Z" fill="#101043"/>
<path d="M36.9999 11.2004L10.6999 39.0004H10.3999L36.9999 10.9004V11.2004Z" fill="#101042"/>
<path d="M37.0002 11.4002L11.0002 39.0002H10.7002L37.0002 11.2002V11.4002Z" fill="#101041"/>
<path d="M37 11.7004L11.2 39.0004H11L37 11.4004V11.7004Z" fill="#101040"/>
<path d="M37.0002 12.0002L11.5002 39.0002H11.2002L37.0002 11.7002V12.0002Z" fill="#0F0F3F"/>
<path d="M37 12.3L11.8 39H11.5L37 12V12.3Z" fill="#0F0F3E"/>
<path d="M36.9998 12.5998L12.0998 38.9998H11.7998L36.9998 12.2998V12.5998Z" fill="#0F0F3D"/>
<path d="M37.0001 12.8996L12.4001 38.9996H12.1001L37.0001 12.5996V12.8996Z" fill="#0F0F3C"/>
<path d="M36.9999 13.2004L12.5999 39.0004H12.3999L36.9999 12.9004V13.2004Z" fill="#0E0E3B"/>
<path d="M37.0001 13.5002L12.9001 39.0002H12.6001L37.0001 13.2002V13.5002Z" fill="#0E0E3A"/>
<path d="M36.9999 13.8L13.1999 39H12.8999L36.9999 13.5V13.8Z" fill="#0E0E39"/>
<path d="M37.0002 14.0998L13.5002 38.9998H13.2002L37.0002 13.7998V14.0998Z" fill="#0E0E38"/>
<path d="M37 14.3996L13.7 38.9996H13.5L37 14.0996V14.3996Z" fill="#0D0D37"/>
<path d="M37.0002 14.7004L14.0002 39.0004H13.7002L37.0002 14.4004V14.7004Z" fill="#0D0D36"/>
<path d="M37 15.0002L14.3 39.0002H14L37 14.7002V15.0002Z" fill="#0D0D35"/>
<path d="M36.9998 15.3L14.5998 39H14.2998L36.9998 15V15.3Z" fill="#0D0D34"/>
<path d="M37.0001 15.5998L14.8001 38.9998H14.6001L37.0001 15.2998V15.5998Z" fill="#0C0C33"/>
<path d="M36.9998 15.7996L15.0998 38.9996H14.7998L36.9998 15.5996V15.7996Z" fill="#0C0C32"/>
<path d="M37.0001 16.0998L15.4001 38.9998H15.1001L37.0001 15.7998V16.0998Z" fill="#0C0C31"/>
<path d="M36.9999 16.3996L15.6999 38.9996H15.3999L36.9999 16.0996V16.3996Z" fill="#0C0C30"/>
<path d="M37.0002 16.7004L16.0002 39.0004H15.7002L37.0002 16.4004V16.7004Z" fill="#0C0C2F"/>
<path d="M37 17.0002L16.2 39.0002H16L37 16.7002V17.0002Z" fill="#0B0B2E"/>
<path d="M37.0002 17.3L16.5002 39H16.2002L37.0002 17V17.3Z" fill="#0B0B2D"/>
<path d="M37 17.5998L16.8 38.9998H16.5L37 17.2998V17.5998Z" fill="#0B0B2C"/>
<path d="M36.9998 17.8996L17.0998 38.9996H16.7998L36.9998 17.5996V17.8996Z" fill="#0B0B2C"/>
<path d="M37.0001 18.2004L17.3001 39.0004H17.1001L37.0001 17.9004V18.2004Z" fill="#0A0A2B"/>
<path d="M36.9998 18.5002L17.5998 39.0002H17.2998L36.9998 18.2002V18.5002Z" fill="#0A0A2A"/>
<path d="M37.0001 18.8L17.9001 39H17.6001L37.0001 18.5V18.8Z" fill="#0A0A29"/>
<path d="M36.9999 19.0998L18.1999 38.9998H17.8999L36.9999 18.7998V19.0998Z" fill="#0A0A28"/>
<path d="M37.0002 19.3996L18.4002 38.9996H18.2002L37.0002 19.0996V19.3996Z" fill="#0A0A27"/>
<path d="M36.9999 19.7004L18.6999 39.0004H18.3999L36.9999 19.4004V19.7004Z" fill="#090926"/>
<path d="M37.0002 20.0002L19.0002 39.0002H18.7002L37.0002 19.7002V20.0002Z" fill="#090926"/>
<path d="M37 20.2L19.3 39H19L37 20V20.2Z" fill="#090925"/>
<path d="M36.9998 20.5002L19.5998 39.0002H19.2998L36.9998 20.2002V20.5002Z" fill="#090924"/>
<path d="M37.0001 20.8L19.8001 39H19.6001L37.0001 20.5V20.8Z" fill="#090923"/>
<path d="M36.9998 21.0998L20.0998 38.9998H19.7998L36.9998 20.7998V21.0998Z" fill="#080822"/>
<path d="M37.0001 21.3996L20.4001 38.9996H20.1001L37.0001 21.0996V21.3996Z" fill="#080822"/>
<path d="M36.9999 21.7004L20.6999 39.0004H20.3999L36.9999 21.4004V21.7004Z" fill="#080821"/>
<path d="M37.0002 22.0002L20.9002 39.0002H20.7002L37.0002 21.7002V22.0002Z" fill="#080820"/>
<path d="M36.9999 22.3L21.1999 39H20.8999L36.9999 22V22.3Z" fill="#08081F"/>
<path d="M37.0002 22.5998L21.5002 38.9998H21.2002L37.0002 22.2998V22.5998Z" fill="#07071F"/>
<path d="M37 22.8996L21.8 38.9996H21.5L37 22.5996V22.8996Z" fill="#07071E"/>
<path d="M36.9998 23.2004L22.0998 39.0004H21.7998L36.9998 22.9004V23.2004Z" fill="#07071D"/>
<path d="M37.0001 23.5002L22.3001 39.0002H22.1001L37.0001 23.2002V23.5002Z" fill="#07071C"/>
<path d="M36.9998 23.8L22.5998 39H22.2998L36.9998 23.5V23.8Z" fill="#07071C"/>
<path d="M37.0001 24.0998L22.9001 38.9998H22.6001L37.0001 23.7998V24.0998Z" fill="#07071B"/>
<path d="M36.9999 24.3996L23.1999 38.9996H22.8999L36.9999 24.0996V24.3996Z" fill="#06061A"/>
<path d="M37.0002 24.6004L23.4002 39.0004H23.2002L37.0002 24.4004V24.6004Z" fill="#06061A"/>
<path d="M36.9999 24.8996L23.6999 38.9996H23.3999L36.9999 24.5996V24.8996Z" fill="#060619"/>
<path d="M37.0002 25.2004L24.0002 39.0004H23.7002L37.0002 24.9004V25.2004Z" fill="#060618"/>
<path d="M37 25.5002L24.3 39.0002H24L37 25.2002V25.5002Z" fill="#060618"/>
<path d="M36.9998 25.8L24.4998 39H24.2998L36.9998 25.5V25.8Z" fill="#060617"/>
<path d="M37 26.0998L24.8 38.9998H24.5L37 25.7998V26.0998Z" fill="#050516"/>
<path d="M36.9998 26.3996L25.0998 38.9996H24.7998L36.9998 26.0996V26.3996Z" fill="#050516"/>
<path d="M37.0001 26.7004L25.4001 39.0004H25.1001L37.0001 26.4004V26.7004Z" fill="#050515"/>
<path d="M36.9999 27.0002L25.6999 39.0002H25.3999L36.9999 26.7002V27.0002Z" fill="#050515"/>
<path d="M37.0002 27.3L25.9002 39H25.7002L37.0002 27V27.3Z" fill="#050514"/>
<path d="M36.9999 27.5998L26.1999 38.9998H25.8999L36.9999 27.2998V27.5998Z" fill="#050513"/>
<path d="M37.0002 27.8996L26.5002 38.9996H26.2002L37.0002 27.5996V27.8996Z" fill="#050513"/>
<path d="M37 28.2004L26.8 39.0004H26.5L37 27.9004V28.2004Z" fill="#040412"/>
<path d="M36.9998 28.5002L26.9998 39.0002H26.7998L36.9998 28.2002V28.5002Z" fill="#040412"/>
<path d="M37 28.8L27.3 39H27L37 28.5V28.8Z" fill="#040411"/>
<path d="M36.9998 28.9998L27.5998 38.9998H27.2998L36.9998 28.7998V28.9998Z" fill="#040411"/>
<path d="M37.0001 29.3L27.9001 39H27.6001L37.0001 29V29.3Z" fill="#040410"/>
<path d="M36.9999 29.5998L28.1999 38.9998H27.8999L36.9999 29.2998V29.5998Z" fill="#040410"/>
<path d="M37.0002 29.8996L28.4002 38.9996H28.2002L37.0002 29.5996V29.8996Z" fill="#04040F"/>
<path d="M36.9999 30.2004L28.6999 39.0004H28.3999L36.9999 29.9004V30.2004Z" fill="#04040F"/>
<path d="M37.0002 30.5002L29.0002 39.0002H28.7002L37.0002 30.2002V30.5002Z" fill="#03030E"/>
<path d="M37 30.8L29.3 39H29L37 30.5V30.8Z" fill="#03030E"/>
<path d="M36.9998 31.0998L29.4998 38.9998H29.2998L36.9998 30.7998V31.0998Z" fill="#03030D"/>
<path d="M37 31.3996L29.8 38.9996H29.5L37 31.0996V31.3996Z" fill="#03030D"/>
<path d="M36.9998 31.7004L30.0998 39.0004H29.7998L36.9998 31.4004V31.7004Z" fill="#03030C"/>
<path d="M37.0001 32.0002L30.4001 39.0002H30.1001L37.0001 31.7002V32.0002Z" fill="#03030C"/>
<path d="M36.9999 32.3L30.5999 39H30.3999L36.9999 32V32.3Z" fill="#03030B"/>
<path d="M37.0001 32.5998L30.9001 38.9998H30.6001L37.0001 32.2998V32.5998Z" fill="#03030B"/>
<path d="M36.9999 32.8996L31.1999 38.9996H30.8999L36.9999 32.5996V32.8996Z" fill="#03030A"/>
<path d="M37.0002 33.2004L31.5002 39.0004H31.2002L37.0002 32.9004V33.2004Z" fill="#02020A"/>
<path d="M37 33.4002L31.8 39.0002H31.5L37 33.2002V33.4002Z" fill="#02020A"/>
<path d="M36.9998 33.7004L31.9998 39.0004H31.7998L36.9998 33.4004V33.7004Z" fill="#020209"/>
<path d="M37 34.0002L32.3 39.0002H32L37 33.7002V34.0002Z" fill="#020209"/>
<path d="M36.9998 34.3L32.5998 39H32.2998L36.9998 34V34.3Z" fill="#020208"/>
<path d="M37.0001 34.5998L32.9001 38.9998H32.6001L37.0001 34.2998V34.5998Z" fill="#020208"/>
<path d="M36.9999 34.8996L33.0999 38.9996H32.8999L36.9999 34.5996V34.8996Z" fill="#020208"/>
<path d="M37.0001 35.2004L33.4001 39.0004H33.1001L37.0001 34.9004V35.2004Z" fill="#020207"/>
<path d="M36.9999 35.5002L33.6999 39.0002H33.3999L36.9999 35.2002V35.5002Z" fill="#020207"/>
<path d="M37.0002 35.8L34.0002 39H33.7002L37.0002 35.5V35.8Z" fill="#020207"/>
<path d="M37 36.0998L34.2 38.9998H34L37 35.7998V36.0998Z" fill="#020206"/>
<path d="M37.0002 36.3996L34.5002 38.9996H34.2002L37.0002 36.0996V36.3996Z" fill="#010106"/>
<path d="M37 36.7004L34.8 39.0004H34.5L37 36.4004V36.7004Z" fill="#010106"/>
<path d="M36.9998 37.0002L35.0998 39.0002H34.7998L36.9998 36.7002V37.0002Z" fill="#010105"/>
<path d="M37.0001 37.3L35.4001 39H35.1001L37.0001 37V37.3Z" fill="#010105"/>
<path d="M36.9999 37.5998L35.5999 38.9998H35.3999L36.9999 37.2998V37.5998Z" fill="#010105"/>
<path d="M37.0001 37.7996L35.9001 38.9996H35.6001L37.0001 37.5996V37.7996Z" fill="#010105"/>
<path d="M36.9999 38.0998L36.1999 38.9998H35.8999L36.9999 37.7998V38.0998Z" fill="#010104"/>
<path d="M37.0002 38.3996L36.5002 38.9996H36.2002L37.0002 38.0996V38.3996Z" fill="#010104"/>
<path d="M37 38.7004L36.7 39.0004H36.5L37 38.4004V38.7004Z" fill="#010104"/>
<path d="M36.7002 39.0002L37.0002 38.7002V39.0002H36.7002Z" fill="#010103"/>
<path d="M32.9999 32.0002H24.9999C25.0999 32.7002 25.4999 33.2002 25.9999 33.5002C26.4999 33.8002 27.1999 34.1002 27.9999 34.1002C28.4999 34.1002 28.9999 34.0002 29.4999 33.9002C29.8999 33.7002 30.2999 33.5002 30.6999 33.1002L32.2999 34.9002C31.2999 36.0002 29.8999 36.6002 27.8999 36.6002C26.6999 36.6002 25.6999 36.4002 24.6999 35.9002C23.7999 35.4002 23.0999 34.8002 22.5999 34.0002C22.0999 33.2002 21.8999 32.2002 21.8999 31.2002C21.8999 30.2002 22.0999 29.2002 22.5999 28.4002C23.0999 27.6002 23.7999 26.9002 24.5999 26.5002C25.3999 26.1002 26.4999 25.7002 27.4999 25.7002C28.4999 25.7002 29.4999 25.9002 30.2999 26.4002C31.0999 26.8002 31.7999 27.5002 32.2999 28.3002C32.7999 29.1002 32.9999 30.1002 32.9999 31.2002C32.9999 31.2002 32.9999 31.5002 32.9999 32.0002ZM25.7999 28.6002C25.2999 29.0002 24.9999 29.5002 24.8999 30.2002H30.0999C29.9999 29.5002 29.6999 29.0002 29.1999 28.6002C28.6999 28.2002 28.1999 28.0002 27.4999 28.0002C26.8999 28.0002 26.2999 28.2002 25.7999 28.6002Z" fill="white"/>
<path d="M54.194 36.5928L54.1738 28.1102L50.0133 35.0982H48.5389L44.3986 28.2919V36.5928H41.3287V22.4551H44.035L49.3266 31.2406L54.5373 22.4551H57.2235L57.2639 36.5928H54.194ZM65.5663 36.7543C64.4218 36.7543 63.3918 36.5187 62.4762 36.0475C61.5741 35.5627 60.8672 34.8963 60.3555 34.048C59.8439 33.1997 59.5881 32.237 59.5881 31.1599C59.5881 30.0827 59.8439 29.12 60.3555 28.2717C60.8672 27.4235 61.5741 26.7637 62.4762 26.2925C63.3918 25.8077 64.4218 25.5654 65.5663 25.5654C66.7108 25.5654 67.7341 25.8077 68.6362 26.2925C69.5383 26.7637 70.2452 27.4235 70.7568 28.2717C71.2685 29.12 71.5243 30.0827 71.5243 31.1599C71.5243 32.237 71.2685 33.1997 70.7568 34.048C70.2452 34.8963 69.5383 35.5627 68.6362 36.0475C67.7341 36.5187 66.7108 36.7543 65.5663 36.7543ZM65.5663 34.1692C66.3742 34.1692 67.0339 33.8999 67.5456 33.3613C68.0707 32.8093 68.3332 32.0754 68.3332 31.1599C68.3332 30.2443 68.0707 29.5172 67.5456 28.9786C67.0339 28.4266 66.3742 28.1506 65.5663 28.1506C64.7584 28.1506 64.0919 28.4266 63.5668 28.9786C63.0417 29.5172 62.7791 30.2443 62.7791 31.1599C62.7791 32.0754 63.0417 32.8093 63.5668 33.3613C64.0919 33.8999 64.7584 34.1692 65.5663 34.1692ZM80.2346 25.5654C81.5811 25.5654 82.6649 25.9693 83.4863 26.7772C84.3211 27.585 84.7385 28.7834 84.7385 30.3722V36.5928H81.5878V30.8569C81.5878 29.9952 81.3993 29.3556 81.0223 28.9382C80.6453 28.5074 80.1 28.2919 79.3864 28.2919C78.5919 28.2919 77.9591 28.541 77.4879 29.0392C77.0166 29.5239 76.781 30.251 76.781 31.2205V36.5928H73.6303V25.7269H76.6396V26.9993C77.057 26.5415 77.5754 26.1915 78.1947 25.9491C78.8141 25.6933 79.4941 25.5654 80.2346 25.5654ZM98.7805 21.6068V36.5928H95.7712V35.3406C94.9903 36.2831 93.8593 36.7543 92.3782 36.7543C91.3549 36.7543 90.4258 36.5255 89.5911 36.0677C88.7697 35.6099 88.1234 34.9568 87.6522 34.1086C87.1809 33.2603 86.9453 32.2774 86.9453 31.1599C86.9453 30.0423 87.1809 29.0594 87.6522 28.2111C88.1234 27.3629 88.7697 26.7099 89.5911 26.2521C90.4258 25.7943 91.3549 25.5654 92.3782 25.5654C93.765 25.5654 94.8489 26.003 95.6299 26.8782V21.6068H98.7805ZM92.9235 34.1692C93.7179 34.1692 94.3777 33.8999 94.9028 33.3613C95.4279 32.8093 95.6905 32.0754 95.6905 31.1599C95.6905 30.2443 95.4279 29.5172 94.9028 28.9786C94.3777 28.4266 93.7179 28.1506 92.9235 28.1506C92.1156 28.1506 91.4491 28.4266 90.924 28.9786C90.3989 29.5172 90.1364 30.2443 90.1364 31.1599C90.1364 32.0754 90.3989 32.8093 90.924 33.3613C91.4491 33.8999 92.1156 34.1692 92.9235 34.1692ZM104.706 27.1609C105.083 26.6358 105.588 26.2386 106.221 25.9693C106.867 25.7 107.608 25.5654 108.442 25.5654V28.4737C108.092 28.4468 107.857 28.4333 107.735 28.4333C106.833 28.4333 106.126 28.6891 105.615 29.2008C105.103 29.699 104.847 30.453 104.847 31.4628V36.5928H101.697V25.7269H104.706V27.1609ZM110.316 25.7269H113.466V36.5928H110.316V25.7269ZM111.891 24.2122C111.312 24.2122 110.841 24.0439 110.477 23.7073C110.114 23.3707 109.932 22.9533 109.932 22.4551C109.932 21.9569 110.114 21.5395 110.477 21.2029C110.841 20.8663 111.312 20.698 111.891 20.698C112.47 20.698 112.941 20.8595 113.305 21.1827C113.668 21.5058 113.85 21.9098 113.85 22.3945C113.85 22.9196 113.668 23.3572 113.305 23.7073C112.941 24.0439 112.47 24.2122 111.891 24.2122ZM120.773 25.5654C122.456 25.5654 123.749 25.9693 124.651 26.7772C125.553 27.5716 126.004 28.7767 126.004 30.3924V36.5928H123.055V35.2396C122.463 36.2494 121.359 36.7543 119.743 36.7543C118.908 36.7543 118.181 36.613 117.562 36.3302C116.956 36.0475 116.491 35.657 116.168 35.1588C115.845 34.6606 115.684 34.0951 115.684 33.4623C115.684 32.4525 116.061 31.658 116.815 31.0791C117.582 30.5001 118.76 30.2106 120.349 30.2106H122.853C122.853 29.5239 122.645 28.9988 122.227 28.6353C121.81 28.2583 121.184 28.0698 120.349 28.0698C119.77 28.0698 119.198 28.164 118.632 28.3525C118.08 28.5276 117.609 28.7699 117.219 29.0796L116.088 26.8782C116.68 26.4608 117.387 26.1376 118.208 25.9087C119.043 25.6798 119.898 25.5654 120.773 25.5654ZM120.531 34.6337C121.069 34.6337 121.547 34.5125 121.965 34.2702C122.382 34.0143 122.678 33.6441 122.853 33.1593V32.0485H120.692C119.4 32.0485 118.754 32.4726 118.754 33.3209C118.754 33.7248 118.908 34.048 119.218 34.2903C119.541 34.5192 119.979 34.6337 120.531 34.6337ZM135.46 25.5654C136.806 25.5654 137.89 25.9693 138.712 26.7772C139.546 27.585 139.964 28.7834 139.964 30.3722V36.5928H136.813V30.8569C136.813 29.9952 136.625 29.3556 136.248 28.9382C135.871 28.5074 135.325 28.2919 134.612 28.2919C133.817 28.2919 133.184 28.541 132.713 29.0392C132.242 29.5239 132.006 30.251 132.006 31.2205V36.5928H128.856V25.7269H131.865V26.9993C132.282 26.5415 132.801 26.1915 133.42 25.9491C134.039 25.6933 134.719 25.5654 135.46 25.5654Z" fill="black"/>
</svg>
