<svg viewBox="0 0 60 60" fill="none" xmlns="http://www.w3.org/2000/svg">
<g clip-path="url(#clip0)">
<path d="M19.5883 48.1766C19.5883 50.1178 18.0001 51.8825 15.8825 51.8825C13.7648 51.8825 12.1766 50.2943 12.1766 48.1766V32.2943C12.1766 30.3531 13.7648 28.5884 15.8825 28.5884C18.0001 28.5884 19.5883 30.1766 19.5883 32.2943V48.1766Z" fill="#231F20"/>
<path d="M30.1765 52.4119C30.1765 54.3531 28.5882 56.1178 26.4706 56.1178C24.3529 56.1178 22.9412 54.5295 22.9412 52.4119V28.2354C22.9412 26.2942 24.5294 24.5295 26.647 24.5295C28.7647 24.5295 30.3529 26.1178 30.3529 28.2354V52.4119H30.1765Z" fill="#231F20"/>
<path d="M8.82357 44.6471C8.82357 46.5883 7.23533 48.353 5.11769 48.353C3.00004 48.353 1.4118 46.7648 1.4118 44.6471V36.0001C1.4118 34.0589 3.00004 32.2942 5.11769 32.2942C7.23533 32.2942 8.82357 34.0589 8.82357 36.0001V44.6471Z" fill="#231F20"/>
<path d="M40.7647 56.2942C40.7647 58.2354 39.1765 60.0001 37.0588 60.0001C35.1177 60.0001 33.5294 58.2354 33.5294 56.2942V24.1766C33.5294 22.2354 35.1177 20.4707 37.2353 20.4707C39.1765 20.4707 40.9412 22.0589 40.9412 24.1766V56.2942H40.7647Z" fill="#231F20"/>
<path d="M52.4119 54.7059C51.706 54.7059 51.1766 54.5294 50.4707 54.353L46.0589 52.9412C45.353 52.7647 44.8236 51.8824 45.1766 51.1765C45.353 50.4706 46.2354 49.9412 46.9413 50.2941L51.5295 51.7059C52.4119 52.0588 53.4707 51.8824 54.353 51.1765C55.2354 50.6471 55.5883 49.5883 55.5883 48.7059V19.2353C55.5883 17.8236 54.706 16.5883 53.4707 16.2353L10.2354 3.1765C9.35303 2.82356 8.2942 3.00003 7.41185 3.52944C6.70597 4.23532 6.17656 5.11768 6.17656 6.1765V26.4706C6.17656 27.353 5.47067 27.8824 4.76479 27.8824C3.88244 27.8824 3.35303 27.1765 3.35303 26.4706V6.1765C3.35303 4.23532 4.23538 2.47062 5.82362 1.4118C7.41185 0.176501 9.35303 3.04133e-05 11.1177 0.529442L54.1766 13.5883C56.6471 14.2941 58.4118 16.7647 58.4118 19.4118V48.8824C58.4118 50.8236 57.5295 52.5883 55.9413 53.8236C54.8824 54.1765 53.6471 54.7059 52.4119 54.7059Z" fill="#231F20"/>
</g>
<defs>
<clipPath id="clip0">
<rect width="60" height="60" fill="white"/>
</clipPath>
</defs>
</svg>
