<svg viewBox="0 0 164 35" fill="none" xmlns="http://www.w3.org/2000/svg">
<path d="M17.1806 1.61792V3.24245H14.2942V4.29906H17.1806V7.53491H18.3089V4.29906H21.2675V3.24245H18.3089V0H17.1806V1.61792Z" fill="#7099A6"/>
<path d="M7.74741 5.73865V8.0962H3.37845V9.57544H7.74741V14.3632H9.36773V9.57544H13.8023V8.0962H9.36773V3.3811H7.74741V5.73865Z" fill="#EB912C"/>
<path d="M26.0562 5.73865V8.0962H21.6873V9.64809H26.0562V14.3632H27.7421V9.64809H32.1111V8.0962H27.7421V3.3811H26.0562V5.73865Z" fill="#59879B"/>
<path fill-rule="evenodd" clip-rule="evenodd" d="M105.767 7.03955H108.017V27.115H105.767V7.03955ZM87.1365 9.15276H89.4259V11.9396C89.4259 14.5546 89.439 14.7131 89.5506 14.6801C89.6227 14.6537 89.9638 14.5612 90.3115 14.4622C90.7248 14.3499 91.2234 14.2773 91.7547 14.2443C92.3582 14.2179 92.7125 14.2377 93.1586 14.3235C93.539 14.3962 93.9917 14.5546 94.3918 14.7528C94.7395 14.9245 95.1987 15.215 95.4152 15.4065C95.6251 15.5914 95.9597 15.9811 96.1499 16.2716C96.3467 16.5622 96.5894 17.0245 96.6944 17.3084C96.8059 17.5858 96.9437 18.1075 97.0093 18.4707C97.088 18.9462 97.1077 19.3556 97.0814 20.0028C97.0618 20.4848 96.9896 21.0858 96.924 21.3367C96.865 21.5877 96.7075 22.0169 96.5829 22.2877C96.4582 22.5584 96.209 22.9745 96.0318 23.2056C95.8613 23.4367 95.5136 23.7801 95.2643 23.9716C95.0216 24.1631 94.5755 24.4273 94.2869 24.5594C93.9982 24.698 93.5194 24.8697 93.2307 24.949C92.7781 25.0745 92.4894 25.0943 91.1906 25.1009C89.9638 25.1075 89.5637 25.0811 89.0782 24.9754C88.7502 24.9028 88.2058 24.7641 87.8778 24.6716C87.5498 24.5792 87.2611 24.4735 87.2349 24.4471C87.2086 24.4207 87.1758 20.9735 87.1627 16.7801L87.1365 9.15276ZM89.9901 16.6679L89.4653 16.8528V22.7103C90.5674 23.0009 90.8035 23.0207 91.5382 23.0009C92.2598 22.9811 92.496 22.948 92.8437 22.816C93.0733 22.7235 93.3947 22.5518 93.5456 22.4263C93.703 22.3075 93.9261 22.0829 94.0442 21.9311C94.1622 21.7792 94.3328 21.4622 94.4181 21.2311C94.5099 20.9999 94.6149 20.5575 94.6542 20.2471C94.7133 19.8245 94.7133 19.5339 94.6477 19.0848C94.5952 18.682 94.4837 18.3188 94.3197 17.9754C94.1885 17.6914 93.9589 17.3414 93.8146 17.1962C93.6702 17.0509 93.4078 16.8462 93.2307 16.7471C93.0602 16.6414 92.7256 16.5094 92.4894 16.4499C92.2598 16.3839 91.8466 16.3377 91.5776 16.3443C91.3086 16.3509 90.9544 16.3839 90.8035 16.4169C90.6461 16.4499 90.2853 16.5622 89.9901 16.6679ZM49.856 9.85936H52.1061V16.265H58.161V18.3782H52.1061V25.2792H49.856V18.3782H43.8011V16.265H49.856V9.85936Z" fill="#1F447E"/>
<path d="M16.7607 13.769V16.4105H11.8998V18.3784H16.7607V23.6614H18.7287V18.3784H23.5897V16.4105H18.7287V11.1274H16.7607V13.769Z" fill="#E8762C"/>
<path d="M31.0551 15.1028V16.7604H28.0965V18.101H31.0551V21.4095H32.5311V18.101H35.4896V16.7604H32.5311V13.4519H31.0551V15.1028Z" fill="#5B6591"/>
<path d="M2.8864 15.2482V16.8331H0V17.9558H2.8864V21.1256H4.01472V17.9558L6.97328 17.8501V16.8331H4.01472V13.6633H2.8864V15.2482Z" fill="#7099A6"/>
<path fill-rule="evenodd" clip-rule="evenodd" d="M74.0098 14.1519H76.2599V18.3254C76.2599 20.6236 76.2337 22.9547 76.1549 24.5132L75.5908 24.6849C75.2825 24.7773 74.633 24.9226 74.1476 25.0085C73.4063 25.1339 73.0717 25.1471 72.0025 25.1207C71.0119 25.0943 70.6117 25.0547 70.1722 24.9424C69.8573 24.8566 69.3194 24.6519 68.9717 24.4802C68.6044 24.2953 68.1649 24.0047 67.9156 23.7868C67.686 23.5754 67.358 23.199 67.2005 22.9547C67.0365 22.7037 66.8201 22.3075 66.7282 22.0764C66.6364 21.8453 66.4986 21.383 66.433 21.0594C66.3412 20.5839 66.3215 20.2339 66.3477 19.4019C66.3805 18.6028 66.4265 18.2132 66.538 17.8169C66.6233 17.5264 66.8201 17.0509 66.9709 16.7603C67.1218 16.4698 67.4236 16.0273 67.6466 15.783C67.8762 15.532 68.2501 15.2019 68.4797 15.0434C68.7093 14.8915 69.0898 14.6868 69.326 14.5943C69.5556 14.5019 69.9754 14.3764 70.2575 14.3236C70.5396 14.2707 71.0644 14.2245 71.4186 14.2245C71.7794 14.2245 72.2911 14.2773 72.5666 14.3302C72.8356 14.3896 73.262 14.5349 73.5178 14.6537C73.7671 14.766 73.9836 14.8651 73.9901 14.8585C73.9967 14.8585 74.0098 14.7 74.0098 14.5085V14.1519ZM70.1788 16.7471C69.9885 16.8528 69.713 17.0707 69.5621 17.2358C69.4113 17.4009 69.2079 17.6915 69.1161 17.8896C69.0177 18.0811 68.893 18.4377 68.834 18.682C68.7749 18.9198 68.729 19.3556 68.729 19.6462C68.729 19.9368 68.7618 20.366 68.8012 20.5971C68.8471 20.8283 68.9652 21.2113 69.0767 21.4424C69.2079 21.7198 69.4178 22.0037 69.6868 22.2547C69.9492 22.499 70.2575 22.7037 70.5265 22.8094C70.8545 22.9415 71.1169 22.9811 71.7925 23.0141C72.2714 23.0339 72.8749 23.0075 73.1964 22.9613C73.5047 22.9151 73.7933 22.8556 73.8393 22.8292C73.8917 22.7962 73.9311 21.8783 73.9639 19.9103L74.0098 17.0443C73.4325 16.7273 73.1111 16.582 72.9143 16.516C72.7241 16.4434 72.278 16.3773 71.9303 16.3641C71.4973 16.3443 71.1759 16.3707 70.9069 16.45C70.697 16.5094 70.369 16.6415 70.1788 16.7471ZM143.651 14.1519H145.901V17.6915C145.901 19.6396 145.881 21.9707 145.796 24.5132L145.232 24.6849C144.923 24.7773 144.3 24.9226 143.841 24.9953C143.257 25.1009 142.7 25.1405 141.945 25.1405C141.348 25.1405 140.659 25.1075 140.41 25.0679C140.161 25.0217 139.669 24.8962 139.321 24.7839C138.947 24.6651 138.462 24.4339 138.16 24.2358C137.865 24.0443 137.458 23.7075 137.248 23.4764C137.045 23.2519 136.756 22.8556 136.618 22.6047C136.481 22.3537 136.29 21.8915 136.199 21.5877C136.061 21.1453 136.021 20.8019 135.989 20.0028C135.969 19.3622 135.989 18.7943 136.041 18.4839C136.087 18.2132 136.205 17.7575 136.304 17.467C136.395 17.1764 136.612 16.7141 136.782 16.4434C136.946 16.1726 137.301 15.7434 137.57 15.4924C137.871 15.2151 138.265 14.9311 138.586 14.7726C138.875 14.6339 139.295 14.4622 139.531 14.3962C139.761 14.3368 140.331 14.2641 140.797 14.2443C141.42 14.2179 141.781 14.2443 142.168 14.3236C142.463 14.3896 142.903 14.5349 143.159 14.6537C143.408 14.766 143.625 14.8651 143.631 14.8585C143.644 14.8585 143.651 14.7 143.651 14.5085V14.1519ZM139.82 16.7471C139.629 16.8528 139.354 17.0707 139.203 17.2358C139.052 17.4009 138.855 17.6915 138.757 17.8896C138.659 18.0811 138.534 18.4377 138.475 18.682C138.416 18.9198 138.37 19.3886 138.37 19.7188C138.37 20.049 138.416 20.5179 138.475 20.7556C138.534 21 138.645 21.3302 138.731 21.4953C138.816 21.6603 139.033 21.9509 139.21 22.1358C139.387 22.3273 139.675 22.5519 139.846 22.6377C140.023 22.7302 140.338 22.8556 140.554 22.9151C140.797 22.9877 141.197 23.0273 141.663 23.0273C142.057 23.0273 142.614 22.9943 142.89 22.9547C143.172 22.9151 143.441 22.8556 143.48 22.8292C143.539 22.7962 143.572 21.9443 143.592 19.9037L143.611 17.0179C142.903 16.6547 142.509 16.5028 142.273 16.4434C142.044 16.3839 141.65 16.3377 141.394 16.3443C141.145 16.3443 140.764 16.3971 140.554 16.45C140.338 16.5094 140.01 16.6415 139.82 16.7471ZM122.528 14.2575C122.934 14.2773 123.453 14.3434 123.689 14.4028C123.918 14.4622 124.299 14.6009 124.528 14.7132C124.765 14.8188 125.145 15.05 125.375 15.2283C125.611 15.4066 125.939 15.7368 126.109 15.9613C126.28 16.1858 126.523 16.5953 126.654 16.866C126.785 17.1368 126.956 17.6122 127.034 17.9226C127.113 18.233 127.205 18.8603 127.277 20.1415H119.497L119.543 20.4056C119.562 20.5509 119.648 20.8613 119.713 21.0924C119.785 21.3236 119.969 21.6868 120.113 21.8915C120.258 22.0962 120.474 22.3405 120.586 22.4264C120.704 22.5122 120.94 22.6575 121.117 22.75C121.288 22.8358 121.589 22.9481 121.786 23.0009C121.983 23.0537 122.508 23.1 122.98 23.1C123.446 23.1 124.115 23.0537 124.463 22.9943C124.81 22.9349 125.302 22.816 125.552 22.7368C125.801 22.6575 126.129 22.532 126.273 22.4594C126.418 22.3868 126.569 22.3207 126.608 22.3207C126.654 22.3207 126.68 22.7236 126.68 24.4339L126.293 24.6122C126.077 24.7113 125.63 24.8698 125.289 24.9688C124.948 25.0613 124.325 25.1802 123.899 25.2264C123.315 25.2858 122.921 25.2858 122.311 25.2264C121.865 25.1802 121.216 25.0613 120.868 24.9622C120.52 24.8632 120.015 24.6651 119.753 24.5198C119.484 24.3745 119.031 24.0377 118.742 23.767C118.447 23.4962 118.08 23.0537 117.909 22.783C117.739 22.5122 117.529 22.05 117.43 21.7594C117.332 21.4688 117.214 20.9603 117.168 20.6368C117.116 20.2736 117.102 19.7651 117.129 19.3688C117.148 18.999 117.234 18.4443 117.312 18.1339C117.391 17.8236 117.581 17.3151 117.732 17.0047C117.883 16.6943 118.165 16.2519 118.349 16.0207C118.539 15.7896 118.913 15.433 119.182 15.2283C119.451 15.0236 119.904 14.766 120.186 14.6471C120.461 14.5283 120.94 14.3896 121.242 14.3302C121.603 14.2641 122.036 14.2377 122.528 14.2575ZM120.986 16.7802C120.776 16.9056 120.481 17.15 120.323 17.3217C120.173 17.5 119.969 17.7905 119.877 17.9754C119.785 18.1603 119.707 18.3386 119.707 18.3783C119.707 18.4245 120.592 18.4509 122.226 18.4509H124.745C124.673 17.9292 124.607 17.6717 124.555 17.533C124.496 17.4009 124.325 17.15 124.174 16.9849C123.99 16.7802 123.767 16.6349 123.512 16.5358C123.295 16.4632 122.901 16.3839 122.633 16.3641C122.318 16.3509 121.996 16.3773 121.747 16.4434C121.537 16.5028 121.196 16.6547 120.986 16.7802ZM154.626 14.4358H156.961L156.954 17.9754C156.954 21.3103 156.961 21.5415 157.092 21.9707C157.177 22.2349 157.335 22.5453 157.466 22.7037C157.591 22.849 157.853 23.0471 158.05 23.1396C158.24 23.232 158.608 23.3377 158.857 23.3707C159.126 23.4103 159.506 23.4103 159.775 23.3707C160.025 23.3377 160.392 23.232 160.582 23.1396C160.779 23.0471 161.041 22.849 161.166 22.7037C161.297 22.5453 161.461 22.2349 161.54 21.9707C161.671 21.5415 161.678 21.3103 161.678 14.4358H163.98L163.967 18.2594C163.961 21.8783 163.954 22.0962 163.823 22.499C163.744 22.7302 163.58 23.0802 163.455 23.2717C163.331 23.4698 163.114 23.7405 162.963 23.8858C162.819 24.0311 162.504 24.2622 162.275 24.4009C162.045 24.5396 161.599 24.7311 161.291 24.8302C160.936 24.9424 160.464 25.0283 160.025 25.0613C159.631 25.0811 159.001 25.0811 158.614 25.0547C158.175 25.0283 157.696 24.9424 157.348 24.8302C157.033 24.7311 156.594 24.5396 156.357 24.4009C156.128 24.2622 155.82 24.0311 155.669 23.8858C155.524 23.7405 155.301 23.4698 155.177 23.2717C155.059 23.0802 154.895 22.7302 154.816 22.499C154.678 22.1028 154.672 21.8585 154.652 18.2594L154.626 14.4358Z" fill="#1F447E"/>
<path d="M7.74741 22.7103V25.0679H3.37845V26.6198H7.74741V31.3349H9.43333V26.6198H13.8023V25.0679H9.43333V20.3528H7.74741V22.7103Z" fill="#C72035"/>
<path d="M26.0562 22.7103V25.0679H21.6873V26.5471H26.0562V31.3349H27.7421V26.5471H32.1111V25.0679H27.7421V20.3528H26.0562V22.7103Z" fill="#1F447E"/>
<path d="M17.0428 28.7V30.351H14.0843V31.6915H17.0428V35H18.5188V31.6915H21.4774V30.351H18.5188V27.0425H17.0428V28.7Z" fill="#5B6591"/>
</svg>
