<svg viewBox="0 0 16 16" fill="none" xmlns="http://www.w3.org/2000/svg">
<path d="M2 7.99999C2 7.58578 2.33579 7.24999 2.75 7.24999L11.537 7.24999L8.24991 4.30892C7.94122 4.03273 7.91488 3.55859 8.19107 3.2499C8.46727 2.94121 8.94141 2.91487 9.2501 3.19106L14.0001 7.44106C14.1591 7.58334 14.25 7.78661 14.25 7.99999C14.25 8.21337 14.1591 8.41664 14.0001 8.55892L9.2501 12.8089C8.94141 13.0851 8.46727 13.0588 8.19107 12.7501C7.91488 12.4414 7.94122 11.9673 8.24991 11.6911L11.537 8.74999L2.75 8.74999C2.33579 8.74999 2 8.4142 2 7.99999Z" fill="#FFFDFD"/>
</svg>
