<svg width="28" height="28" viewBox="0 0 28 28" fill="none" xmlns="http://www.w3.org/2000/svg">
<path d="M0 14C0 6.26801 6.26801 0 14 0C21.732 0 28 6.26801 28 14C28 21.732 21.732 28 14 28C6.26801 28 0 21.732 0 14ZM19.7071 8.29289C19.3166 7.90237 18.6834 7.90237 18.2929 8.29289L14 12.5858L9.70711 8.29289C9.31658 7.90237 8.68342 7.90237 8.29289 8.29289C7.90237 8.68342 7.90237 9.31658 8.29289 9.70711L12.5858 14L8.29289 18.2929C7.90237 18.6834 7.90237 19.3166 8.29289 19.7071C8.68342 20.0976 9.31658 20.0976 9.70711 19.7071L14 15.4142L18.2929 19.7071C18.6834 20.0976 19.3166 20.0976 19.7071 19.7071C20.0976 19.3166 20.0976 18.6834 19.7071 18.2929L15.4142 14L19.7071 9.70711C20.0976 9.31658 20.0976 8.68342 19.7071 8.29289Z" fill="#1A2FEE"/>
</svg>
