<svg width="40" height="40" viewBox="0 0 40 40" fill="none" xmlns="http://www.w3.org/2000/svg">
<path d="M0 20C0 8.9543 8.9543 0 20 0C31.0457 0 40 8.9543 40 20C40 31.0457 31.0457 40 20 40C8.9543 40 0 31.0457 0 20Z" fill="white"/>
<path fill-rule="evenodd" clip-rule="evenodd" d="M14.4322 12.3522C14.4322 13.6598 13.448 14.7061 11.8676 14.7061H11.8386C10.317 14.7061 9.33325 13.6598 9.33325 12.3522C9.33325 11.017 10.3469 10 11.8974 10C13.448 10 14.4028 11.017 14.4322 12.3522ZM14.1337 16.5648V30.1829H9.60128V16.5648H14.1337ZM30.4792 30.183L30.4794 22.3748C30.4794 18.1919 28.2434 16.2451 25.2609 16.2451C22.8545 16.2451 21.7771 17.5669 21.1755 18.4941V16.5652H16.6425C16.7023 17.8431 16.6425 30.1833 16.6425 30.1833H21.1755V22.5779C21.1755 22.1709 21.2049 21.7648 21.3248 21.4735C21.6523 20.6604 22.3982 19.8185 23.6504 19.8185C25.2911 19.8185 25.947 21.0673 25.947 22.8973V30.183H30.4792Z" fill="#262627"/>
</svg>
