<svg width="40" height="40" viewBox="0 0 40 40" fill="none" xmlns="http://www.w3.org/2000/svg">
<path d="M20 40C31.0457 40 40 31.0457 40 20C40 8.9543 31.0457 0 20 0C8.9543 0 0 8.9543 0 20C0 31.0457 8.9543 40 20 40Z" fill="white"/>
<path fill-rule="evenodd" clip-rule="evenodd" d="M10.6667 14.3128C10.6667 14.3128 18.7163 18.8775 20.2787 18.8775C21.9163 18.8775 29.8787 14.4 29.8787 14.4L29.8915 13.6C29.8915 12.7168 29.1747 12 28.2891 12H12.2683C11.3835 12 10.6667 12.7168 10.6667 13.6V14.3128ZM29.8787 16.8C29.8787 16.8 21.9915 21.0776 20.2787 21.0776C18.7163 21.0776 10.6787 16.8 10.6795 16.8L10.6667 26.4C10.6667 27.2832 11.3843 28 12.2683 28H28.2891C29.1747 28 29.8915 27.2832 29.8915 26.4L29.8787 16.8Z" fill="#262627"/>
</svg>
