<svg width="32" height="32" viewBox="0 0 32 32" fill="none" xmlns="http://www.w3.org/2000/svg">
<path d="M16 32C24.8366 32 32 24.8366 32 16C32 7.16344 24.8366 0 16 0C7.16344 0 0 7.16344 0 16C0 24.8366 7.16344 32 16 32Z" fill="white"/>
<path fill-rule="evenodd" clip-rule="evenodd" d="M8.53333 11.4502C8.53333 11.4502 14.973 15.1019 16.2229 15.1019C17.533 15.1019 23.9029 11.5199 23.9029 11.5199L23.9132 10.8799C23.9132 10.1734 23.3397 9.59991 22.6312 9.59991H9.81461C9.10677 9.59991 8.53333 10.1734 8.53333 10.8799V11.4502ZM23.9029 13.44C23.9029 13.44 17.5932 16.862 16.2229 16.862C14.973 16.862 8.54293 13.44 8.54357 13.44L8.53333 21.12C8.53333 21.8265 9.10741 22.4 9.81461 22.4H22.6312C23.3397 22.4 23.9132 21.8265 23.9132 21.12L23.9029 13.44Z" fill="black"/>
</svg>
