<svg width="28" height="28" viewBox="0 0 28 28" fill="none" xmlns="http://www.w3.org/2000/svg">
<path d="M13 9C13 8.44771 13.4477 8 14 8C14.5523 8 15 8.44772 15 9V13H19C19.5523 13 20 13.4477 20 14C20 14.5523 19.5523 15 19 15H15V19C15 19.5523 14.5523 20 14 20C13.4477 20 13 19.5523 13 19V15H9C8.44771 15 8 14.5523 8 14C8 13.4477 8.44772 13 9 13H13V9ZM28 14C28 21.732 21.732 28 14 28C6.26801 28 0 21.732 0 14C0 6.26801 6.26801 0 14 0C21.732 0 28 6.26801 28 14ZM26 14C26 7.37258 20.6274 2 14 2C7.37258 2 2 7.37258 2 14C2 20.6274 7.37258 26 14 26C20.6274 26 26 20.6274 26 14Z" fill="#212121"/>
</svg>
