<svg viewBox="0 0 64 62" fill="none" xmlns="http://www.w3.org/2000/svg">
<path d="M62.0786 51.7197C59.7535 49.7794 57.6208 47.8474 55.2958 45.9071C54.518 45.33 54.3256 44.9369 54.9111 43.9667C57.8132 38.7396 59.1764 33.3117 58.7834 27.3067C57.8132 12.0099 44.8331 0 29.1432 0C28.3654 0 27.2029 0 26.0404 0.19236C8.99564 1.93196 -3.0143 18.7927 0.665622 35.6451C5.12335 55.985 27.7883 65.2852 45.4185 54.0447C46.1963 53.66 46.5811 53.66 47.1581 54.2371L54.7103 60.6268C56.0652 61.5969 56.6507 61.5969 57.8132 60.4344C59.3604 58.6948 60.916 56.7545 62.4633 55.0065C63.6258 53.66 63.4334 52.8822 62.0786 51.7197ZM29.3356 47.655C19.266 47.655 11.3207 39.5174 11.3207 29.4478C11.3207 19.7629 19.4583 11.6252 29.3356 11.6252C39.2128 11.6252 47.3505 19.7629 47.3505 29.6401C47.5428 39.325 39.2128 47.655 29.3356 47.655Z" fill="#6EB33F"/>
<circle cx="29.3357" cy="29.6068" r="11.8761" fill="#5F6062"/>
</svg>
