<svg width="32" height="32" viewBox="0 0 32 32" fill="none" xmlns="http://www.w3.org/2000/svg">
<path d="M16 32C24.8366 32 32 24.8366 32 16C32 7.16344 24.8366 0 16 0C7.16344 0 0 7.16344 0 16C0 24.8366 7.16344 32 16 32Z" fill="white"/>
<path fill-rule="evenodd" clip-rule="evenodd" d="M24.5333 19.8791C24.5333 19.1362 24.3567 18.4349 24.0427 17.8117C24.1661 17.2557 24.2303 16.68 24.2303 16.0885C24.2303 11.6569 20.5868 8.0631 16.0903 8.0631C15.6167 8.0631 15.1521 8.10366 14.6985 8.18082C13.971 7.72875 13.1101 7.46661 12.1879 7.46661C9.57994 7.46661 7.46667 9.54987 7.46667 12.1218C7.46667 12.9804 7.70349 13.7836 8.1149 14.4761C8.00753 14.9964 7.95034 15.5365 7.95034 16.0885C7.95034 20.5221 11.5949 24.1148 16.0903 24.1148C16.6001 24.1148 17.0978 24.0684 17.5814 23.9803C18.2467 24.3325 19.0053 24.5333 19.8131 24.5333C22.4201 24.5333 24.5333 22.449 24.5333 19.8791ZM20.8356 18.1342C20.8356 18.795 20.643 19.3974 20.2657 19.9246C19.8894 20.4509 19.3335 20.8664 18.611 21.1611C17.8975 21.4539 17.0426 21.6033 16.0682 21.6033C14.8992 21.6033 13.9188 21.4005 13.1532 20.9999C12.6063 20.7091 12.1558 20.3154 11.8136 19.8267C11.4674 19.3361 11.2928 18.8484 11.2928 18.3765C11.2928 18.0837 11.4072 17.8285 11.632 17.6198C11.8548 17.4121 12.1407 17.3082 12.4819 17.3082C12.7609 17.3082 13.0027 17.3903 13.1984 17.5535C13.386 17.7108 13.5466 17.9433 13.676 18.241C13.8205 18.5675 13.977 18.8425 14.1426 19.0571C14.3032 19.2668 14.533 19.4419 14.826 19.5794C15.121 19.7159 15.5194 19.7871 16.008 19.7871C16.6813 19.7871 17.2332 19.6447 17.6477 19.3657C18.0541 19.0937 18.2507 18.7653 18.2507 18.3637C18.2507 18.0481 18.1474 17.7989 17.9367 17.603C17.7139 17.3992 17.4219 17.2409 17.0677 17.1302C16.6974 17.0174 16.1957 16.8937 15.5745 16.7651C14.7286 16.5871 14.0112 16.3764 13.4412 16.136C12.8572 15.8917 12.3866 15.5524 12.0424 15.128C11.6932 14.6957 11.5156 14.1546 11.5156 13.5186C11.5156 12.9132 11.7012 12.3662 12.0685 11.8953C12.4317 11.4274 12.9636 11.0614 13.6489 10.8131C14.3242 10.5668 15.127 10.4422 16.0371 10.4422C16.7636 10.4422 17.4028 10.5253 17.9367 10.6895C18.4735 10.8537 18.9251 11.0753 19.2803 11.3493C19.6385 11.6262 19.9054 11.92 20.072 12.2267C20.2406 12.5363 20.3269 12.8439 20.3269 13.1417C20.3269 13.4286 20.2145 13.6897 19.9927 13.9162C19.77 14.1457 19.488 14.2615 19.1569 14.2615C18.8558 14.2615 18.619 14.1883 18.4564 14.0458C18.3039 13.9123 18.1454 13.7046 17.9698 13.4078C17.7671 13.0279 17.5212 12.7282 17.2393 12.5165C16.9653 12.3108 16.5088 12.2079 15.8796 12.2079C15.2976 12.2079 14.822 12.3226 14.4697 12.5511C14.1306 12.7698 13.965 13.022 13.965 13.3207C13.965 13.5028 14.0182 13.6561 14.1286 13.7867C14.243 13.9271 14.4065 14.0478 14.6132 14.1507C14.827 14.2565 15.0477 14.3416 15.2685 14.4009C15.4943 14.4633 15.8736 14.5553 16.3944 14.674C17.0536 14.8125 17.6587 14.9697 18.1935 15.1389C18.7364 15.309 19.204 15.5187 19.5873 15.7651C19.9767 16.0153 20.2847 16.3358 20.5045 16.7196C20.7242 17.1064 20.8356 17.5812 20.8356 18.1342Z" fill="black"/>
</svg>
